#!OML:ASF H:\ManfredObstacles\Project 1\Capture day 2\Session 1\male.ASF
:FULLY-SPECIFIED
:DEGREES
644
root 2.76963 16.2822 -33.2878 -164.606 -0.686397 -179.082
lowerback -3.57905 4.31 -1.89303
upperback 1.08559 5.8656 -1.39569
thorax 3.07439 2.89182 -0.0211834
lowerneck -39.7424 -2.77667 -0.350086
upperneck 38.6168 -7.41368 2.95017
head 24.0863 -2.55239 -0.798353
rclavicle 1.86361e-014 -5.76476e-015
rhumerus -39.8712 24.7558 -97.434
rradius 101.281
rwrist 5.78491
rhand -12.0046 -2.15826
rfingers 7.12502
rthumb 14.0525 -31.6632
lclavicle 1.86361e-014 -5.76476e-015
lhumerus -71.3098 -23.7231 95.1348
lradius 102.642
lwrist -20.502
lhand -19.3335 6.83161
lfingers 7.12502
lthumb 6.98327 36.6964
rfemur 8.19789 2.02583 25.3837
rtibia 23.9753
rfoot 34.7526 -14.9987
rtoes -11.4466
lfemur -39.5907 -9.2455 -16.0078
ltibia 33.6581
lfoot 8.75782 15.2511
ltoes -9.54998
645
root 2.75766 16.233 -33.5885 -164.99 -0.603725 -178.726
lowerback -3.53171 4.39674 -1.53328
upperback 1.15316 5.96509 -1.30398
thorax 3.14326 2.94812 -0.119133
lowerneck -39.8056 -2.81514 -0.458565
upperneck 38.647 -7.42285 2.99294
head 24.1476 -2.56465 -0.759709
rclavicle 6.75868e-015 -1.51076e-014
rhumerus -40.4622 24.3566 -97.477
rradius 100.924
rwrist 5.72091
rhand -12.1513 -2.16916
rfingers 7.12502
rthumb 13.9112 -31.6838
lclavicle 6.75868e-015 -1.51076e-014
lhumerus -71.0546 -23.7786 95.456
lradius 102.907
lwrist -20.4421
lhand -19.5914 6.75846
lfingers 7.12502
lthumb 6.73424 36.6314
rfemur 8.125 2.03419 25.5839
rtibia 25.9801
rfoot 34.778 -15.0391
rtoes -11.5014
lfemur -38.9177 -8.94902 -15.9929
ltibia 33.7661
lfoot 9.3226 13.8927
ltoes -9.19845
646
root 2.74398 16.1697 -33.8859 -165.437 -0.500756 -178.395
lowerback -3.41904 4.44476 -1.16632
upperback 1.2349 6.01078 -1.22671
thorax 3.19337 2.97794 -0.243667
lowerneck -39.8395 -2.78827 -0.476012
upperneck 38.6541 -7.36877 3.00098
head 24.166 -2.54708 -0.735533
rclavicle -1.03567e-013 -7.7526e-015
rhumerus -41.0933 23.8516 -97.5636
rradius 100.416
rwrist 5.85837
rhand -12.2873 -2.2367
rfingers 7.12502
rthumb 13.7801 -31.7603
lclavicle -1.03567e-013 -7.7526e-015
lhumerus -70.7108 -23.7648 95.7418
lradius 103.128
lwrist -20.4278
lhand -19.8172 6.71942
lfingers 7.12502
lthumb 6.5163 36.5992
rfemur 7.88526 2.01071 25.7258
rtibia 28.3958
rfoot 34.3192 -14.9575
rtoes -11.8952
lfemur -38.1759 -8.57186 -16.094
ltibia 34.3536
lfoot 9.52973 12.9789
ltoes -8.81813
647
root 2.72928 16.0935 -34.1787 -165.92 -0.383181 -178.119
lowerback -3.25208 4.43426 -0.872661
upperback 1.37778 5.98037 -1.13799
thorax 3.26755 2.9676 -0.322678
lowerneck -40.0496 -2.69194 -0.399369
upperneck 38.6518 -7.21617 2.93725
head 24.2172 -2.48246 -0.73837
rclavicle -7.60351e-014 -1.39149e-015
rhumerus -41.6283 23.3327 -97.5878
rradius 99.7559
rwrist 6.1554
rhand -12.3704 -2.39147
rfingers 7.12502
rthumb 13.7001 -31.9205
lclavicle -7.60351e-014 -1.39149e-015
lhumerus -70.1417 -23.6271 95.9788
lradius 103.257
lwrist -20.4608
lhand -20.0779 6.67174
lfingers 7.12502
lthumb 6.26463 36.5591
rfemur 7.46938 1.93142 25.7778
rtibia 31.1605
rfoot 33.4445 -14.7859
rtoes -12.3702
lfemur -37.3588 -8.10099 -16.3312
ltibia 35.3397
lfoot 9.17793 12.6619
ltoes -8.54621
648
root 2.71376 16.007 -34.4697 -166.444 -0.232484 -177.927
lowerback -3.03707 4.36025 -0.666611
upperback 1.54792 5.8994 -1.06505
thorax 3.3354 2.94273 -0.374828
lowerneck -40.2994 -2.53973 -0.251624
upperneck 38.6438 -7.00649 2.84299
head 24.2672 -2.38986 -0.753038
rclavicle 8.12035e-014 -7.95139e-015
rhumerus -42.156 22.7474 -97.5998
rradius 98.9531
rwrist 6.60807
rhand -12.4103 -2.59803
rfingers 7.12502
rthumb 13.6616 -32.1297
lclavicle 8.12035e-014 -7.95139e-015
lhumerus -69.4292 -23.407 96.1769
lradius 103.315
lwrist -20.5211
lhand -20.353 6.641
lfingers 7.12502
lthumb 5.99904 36.5361
rfemur 6.90478 1.78229 25.6917
rtibia 34.2154
rfoot 32.2507 -14.5561
rtoes -13.0208
lfemur -36.4195 -7.58717 -16.6987
ltibia 36.6132
lfoot 8.18255 13.0539
ltoes -8.39059
649
root 2.69756 15.9128 -34.7587 -166.983 -0.0642033 -177.826
lowerback -2.75764 4.25905 -0.565163
upperback 1.72984 5.76252 -1.00174
thorax 3.36886 2.8784 -0.387977
lowerneck -40.6263 -2.35494 -0.0846751
upperneck 38.6586 -6.76275 2.74543
head 24.363 -2.28065 -0.763622
rclavicle 1.54555e-014 -2.62396e-014
rhumerus -42.6719 22.0894 -97.5695
rradius 98.0164
rwrist 7.15815
rhand -12.3823 -2.84905
rfingers 7.12502
rthumb 13.6886 -32.3789
lclavicle 1.54555e-014 -2.62396e-014
lhumerus -68.567 -23.124 96.3681
lradius 103.258
lwrist -20.6023
lhand -20.6727 6.61484
lfingers 7.12502
lthumb 5.69036 36.5184
rfemur 6.18813 1.55487 25.4622
rtibia 37.4878
rfoot 30.8408 -14.4149
rtoes -13.7479
lfemur -35.3799 -7.09493 -17.1574
ltibia 38.0576
lfoot 6.68012 14.0548
ltoes -8.35197
650
root 2.68145 15.8142 -35.0452 -167.509 0.113348 -177.852
lowerback -2.45085 4.08624 -0.645373
upperback 1.95499 5.54098 -0.93724
thorax 3.41339 2.76895 -0.304374
lowerneck -41.1132 -2.11515 0.126125
upperneck 38.6843 -6.4422 2.61567
head 24.5166 -2.13666 -0.776887
rclavicle 1.63997e-014 4.96962e-015
rhumerus -43.0807 21.4487 -97.4588
rradius 96.9154
rwrist 7.77372
rhand -12.2996 -3.10487
rfingers 7.12502
rthumb 13.7683 -32.6293
lclavicle 1.63997e-014 4.96962e-015
lhumerus -67.4528 -22.7064 96.5246
lradius 103.081
lwrist -20.6817
lhand -21.0292 6.60622
lfingers 7.12502
lthumb 5.34614 36.5188
rfemur 5.30603 1.23877 25.0544
rtibia 40.9193
rfoot 29.35 -14.3568
rtoes -14.3345
lfemur -34.2708 -6.67856 -17.7141
ltibia 39.5387
lfoot 4.87655 15.4787
ltoes -8.33367
651
root 2.66547 15.7154 -35.3311 -167.99 0.289492 -177.996
lowerback -2.16453 3.86489 -0.870573
upperback 2.21698 5.26402 -0.881593
thorax 3.49634 2.62917 -0.148341
lowerneck -41.7376 -1.86525 0.319273
upperneck 38.7194 -6.09956 2.50023
head 24.7308 -1.98127 -0.772039
rclavicle 4.18939e-014 6.55989e-015
rhumerus -43.3872 20.7625 -97.253
rradius 95.659
rwrist 8.4229
rhand -12.1828 -3.36206
rfingers 7.12502
rthumb 13.8809 -32.8788
lclavicle 4.18939e-014 6.55989e-015
lhumerus -66.0714 -22.2364 96.6694
lradius 102.755
lwrist -20.7464
lhand -21.41 6.63659
lfingers 7.12502
lthumb 4.97848 36.5581
rfemur 4.23753 0.844862 24.4838
rtibia 44.4662
rfoot 27.8537 -14.4215
rtoes -15.0008
lfemur -33.1244 -6.40285 -18.3284
ltibia 40.9431
lfoot 3.00051 17.1266
ltoes -8.33901
652
root 2.65021 15.6202 -35.6162 -168.42 0.46797 -178.307
lowerback -1.91953 3.57417 -1.3063
upperback 2.48707 4.90552 -0.850045
thorax 3.5988 2.44377 0.100043
lowerneck -42.3611 -1.55734 0.554428
upperneck 38.7373 -5.68488 2.36721
head 24.9265 -1.79884 -0.759303
rclavicle -2.85256e-014 2.20651e-014
rhumerus -43.6728 20.0936 -97.0304
rradius 94.2364
rwrist 9.02761
rhand -12.1394 -3.62029
rfingers 7.12502
rthumb 13.9227 -33.1342
lclavicle -2.85256e-014 2.20651e-014
lhumerus -64.4887 -21.6659 96.8118
lradius 102.275
lwrist -20.6891
lhand -21.829 6.70138
lfingers 7.12502
lthumb 4.57386 36.632
rfemur 2.97957 0.386612 23.7037
rtibia 48.1038
rfoot 26.3718 -14.5975
rtoes -15.6451
lfemur -31.9386 -6.26932 -19.0605
ltibia 42.1702
lfoot 1.34627 18.6924
ltoes -8.2755
653
root 2.63497 15.5302 -35.8993 -168.782 0.665786 -178.787
lowerback -1.74286 3.22443 -1.94018
upperback 2.78676 4.48154 -0.849694
thorax 3.7656 2.22002 0.4306
lowerneck -43.0252 -1.20572 0.821238
upperneck 38.7126 -5.20812 2.22395
head 25.0953 -1.59101 -0.734505
rclavicle 7.58364e-014 -3.18055e-015
rhumerus -43.8673 19.4503 -96.754
rradius 92.6242
rwrist 9.56706
rhand -12.1832 -3.90923
rfingers 7.12502
rthumb 13.8805 -33.426
lclavicle 7.58364e-014 -3.18055e-015
lhumerus -62.6292 -21.015 96.9338
lradius 101.656
lwrist -20.5203
lhand -22.2606 6.84479
lfingers 7.12502
lthumb 4.1571 36.784
rfemur 1.4994 -0.106369 22.7124
rtibia 51.8163
rfoot 24.9445 -14.8031
rtoes -16.2759
lfemur -30.7374 -6.22769 -19.9292
ltibia 43.169
lfoot -0.00544916 20.1363
ltoes -8.31834
654
root 2.62162 15.4479 -36.1791 -169.107 0.894056 -179.456
lowerback -1.56405 2.8941 -2.68675
upperback 3.01133 4.09116 -0.971678
thorax 3.86413 2.01165 0.69844
lowerneck -43.3832 -0.897982 1.05269
upperneck 38.6196 -4.82556 2.17207
head 25.1073 -1.41923 -0.67672
rclavicle -4.57205e-015 1.45113e-014
rhumerus -44.206 18.5532 -96.5378
rradius 90.8419
rwrist 10.0601
rhand -12.4039 -4.25062
rfingers 7.12502
rthumb 13.6678 -33.7818
lclavicle -4.57205e-015 1.45113e-014
lhumerus -60.7488 -20.5539 97.077
lradius 100.931
lwrist -20.2038
lhand -22.674 7.12549
lfingers 7.12502
lthumb 3.75791 37.0721
rfemur -0.185088 -0.599011 21.5072
rtibia 55.5862
rfoot 23.5293 -15.0636
rtoes -16.7946
lfemur -29.483 -6.22874 -20.965
ltibia 43.9128
lfoot -1.03394 21.3813
ltoes -8.54711
655
root 2.6114 15.3728 -36.4533 -169.42 1.15717 -180.287
lowerback -1.39977 2.55684 -3.59322
upperback 3.2806 3.71038 -1.16932
thorax 4.02282 1.80491 0.981436
lowerneck -43.59 -0.535914 1.49274
upperneck 39.2902 -4.39962 1.97479
head 24.063 -1.2433 -0.599346
rclavicle 5.1684e-014 -1.51076e-014
rhumerus -44.4408 17.5654 -96.2662
rradius 88.8848
rwrist 10.4614
rhand -12.775 -4.74287
rfingers 7.12502
rthumb 13.31 -34.2978
lclavicle 5.1684e-014 -1.51076e-014
lhumerus -58.5946 -20.2232 97.1618
lradius 100.093
lwrist -19.8086
lhand -23.0862 7.56964
lfingers 7.12502
lthumb 3.35989 37.5229
rfemur -2.05311 -1.06946 20.1341
rtibia 59.3826
rfoot 22.1042 -15.3522
rtoes -17.26
lfemur -28.1553 -6.19402 -22.152
ltibia 44.4162
lfoot -1.76314 22.393
ltoes -9.05673
656
root 2.60558 15.3056 -36.7215 -169.753 1.46279 -181.243
lowerback -1.15141 2.23414 -4.64426
upperback 3.54272 3.36007 -1.42622
thorax 4.13314 1.61212 1.28134
lowerneck -43.9221 -0.257205 1.74473
upperneck 39.0996 -4.09365 1.9774
head 23.9727 -1.08395 -0.534689
rclavicle -1.30204e-014 9.93923e-015
rhumerus -44.6928 16.4675 -95.9479
rradius 86.8017
rwrist 10.8161
rhand -13.2582 -5.42551
rfingers 7.12502
rthumb 12.8443 -35.0103
lclavicle -1.30204e-014 9.93923e-015
lhumerus -56.3095 -20.044 97.2262
lradius 99.2282
lwrist -19.3745
lhand -23.4636 8.22278
lfingers 7.12502
lthumb 2.99536 38.1815
rfemur -4.0627 -1.49013 18.6492
rtibia 63.1525
rfoot 20.618 -15.6485
rtoes -17.6492
lfemur -26.7322 -6.0891 -23.4491
ltibia 44.7023
lfoot -2.26549 23.1574
ltoes -9.79937
657
root 2.60433 15.2465 -36.9842 -170.119 1.76292 -182.238
lowerback -0.863469 1.90928 -5.76766
upperback 3.83852 3.01797 -1.70385
thorax 4.26726 1.42244 1.60029
lowerneck -44.2764 0.0160096 2.00886
upperneck 38.8943 -3.81868 1.99775
head 23.8779 -0.929511 -0.470733
rclavicle -1.78906e-015 -1.31198e-014
rhumerus -44.9425 15.3488 -95.5692
rradius 84.6967
rwrist 11.0262
rhand -13.8317 -6.35989
rfingers 7.12502
rthumb 12.2914 -35.9786
lclavicle -1.78906e-015 -1.31198e-014
lhumerus -53.8631 -20.0021 97.2363
lradius 98.377
lwrist -19.0066
lhand -23.7933 9.09799
lfingers 7.12502
lthumb 2.677 39.0609
rfemur -6.16782 -1.88239 17.1669
rtibia 66.816
rfoot 19.0856 -15.9456
rtoes -18.0667
lfemur -25.2294 -5.93229 -24.7561
ltibia 44.8213
lfoot -2.59853 23.6981
ltoes -10.7301
